<?xml version="1.0" encoding="utf-8"?>
<svg viewBox="497.21 -5.736 226.881 227.052" xmlns="http://www.w3.org/2000/svg">
  <g transform="matrix(1, 0, 0, 1, 345.146851, -124.852829)">
    <path d="M 378.943 232.758 C 378.789 320.084 284.159 374.495 208.609 330.698 C 133.06 286.901 133.254 177.744 208.958 134.215 C 226.221 124.289 245.792 119.082 265.705 119.117 C 328.423 119.066 379.217 170.04 378.943 232.758 Z" fill="#f2f2f2"/>
    <path d="M 212.925 195.655 C 217.616 180.706 228.283 166.995 243.035 161.942 C 257.787 156.888 279.389 164.586 290.48 175.64 C 310.767 195.858 315.718 265.317 301.78 287.266 C 299.008 287.12 289.441 287.011 286.635 286.906 L 282.666 273.676 L 282.666 286.776 C 278.196 286.637 273.691 286.542 269.15 286.489 C 237.513 286.097 211.855 260.749 211.076 229.12 C 210.713 214.56 211.077 201.546 212.925 195.655 Z" fill="#2f2e41"/>
    <circle cx="263.821" cy="212.87" r="32.33" fill="#9e616a"/>
    <path d="M 235.92 184.477 L 273.144 165.838 C 288.642 172.822 299.133 187.662 300.547 204.602 L 301.475 215.716 L 285.887 211.748 L 284.18 197.537 L 281.533 210.639 L 274.339 208.809 L 274.407 186.746 L 267.209 208.793 L 241.517 202.89 L 235.92 184.477 Z" fill="#2f2e41"/>
    <path d="M 349.684 307.627 C 308.792 354.155 238.13 359.262 190.974 319.097 L 200.704 291.947 C 205.184 282.12 214.723 275.57 225.504 274.917 L 231.694 274.537 L 246.454 261.807 C 246.454 261.807 286.224 260.387 285.634 259.707 L 309.724 274.197 L 309.704 274.097 L 319.174 274.677 C 329.955 275.327 339.495 281.879 343.974 291.707 L 349.684 307.627 Z" fill="#20c997"/>
  </g>
</svg>