<?xml version="1.0" encoding="utf-8"?>
<svg viewBox="338.87 18.749 226.88 228.413" xmlns="http://www.w3.org/2000/svg">
  <g transform="matrix(1, 0, 0, 1, -609.766235, -5.073954)">
    <circle cx="1062.076" cy="137.263" r="113.44" fill="#f2f2f2"/>
    <path d="M 1015.779 92.892 C 1014.222 101.257 1011.669 109.405 1008.175 117.163 C 988.164 159.496 1045.151 145.698 1065.517 145.698 C 1087.783 145.698 1109.088 157.407 1105.834 105.381 C 1104.444 83.157 1087.783 65.063 1065.517 65.063 C 1046.497 65.063 1019.756 73.517 1015.779 92.892 Z" fill="#2f2e41"/>
    <circle cx="1062.181" cy="112.926" r="32.762" fill="#ffb6b6"/>
    <path d="M 1039.932 79.529 C 1064.598 64.491 1096.294 81.795 1096.984 110.676 C 1096.997 111.211 1096.998 111.746 1096.988 112.281 C 1080.294 116.473 1062.755 119.68 1044.952 113.284 L 1040.748 102.994 L 1038.269 113.291 C 1032.848 115.507 1027.412 117.382 1021.976 113.27 C 1021.525 99.628 1028.364 86.775 1039.932 79.529 Z" fill="#2f2e41"/>
    <path d="M 1148.281 213.694 C 1107.39 260.222 1036.728 265.329 989.571 225.164 L 999.301 198.014 C 1003.782 188.187 1013.321 181.637 1024.101 180.984 L 1030.291 180.604 L 1045.051 167.874 C 1045.051 167.874 1084.821 166.454 1084.231 165.774 L 1108.321 180.264 L 1108.301 180.164 L 1117.771 180.744 C 1128.552 181.394 1138.093 187.946 1142.571 197.774 L 1148.281 213.694 Z" fill="#20c997"/>
  </g>
</svg>