<?xml version="1.0" encoding="utf-8"?>
<svg viewBox="995.725 56.657 226.88 227.882" xmlns="http://www.w3.org/2000/svg">
  <g transform="matrix(1, 0, 0, 1, 403.742767, -219.189011)">
    <circle cx="705.422" cy="389.286" r="113.44" fill="#f2f2f2"/>
    <circle cx="702.291" cy="367.127" r="36.211" fill="#ffb6b6"/>
    <path d="M 790.527 465.186 C 749.635 511.714 678.974 516.821 631.817 476.656 L 641.547 449.506 C 646.028 439.679 655.567 433.129 666.347 432.476 L 672.537 432.096 L 687.297 419.366 C 687.297 419.366 727.067 417.946 726.477 417.266 L 750.567 431.756 L 750.547 431.656 L 760.017 432.236 C 770.798 432.886 780.338 439.437 784.817 449.266 L 790.527 465.186 Z" fill="#20c997"/>
    <path d="M 740.482 344.67 C 737.422 333.717 730.469 324.258 720.93 318.068 C 713.328 313.206 703.841 310.723 695.228 313.295 C 686.616 315.866 679.485 324.319 680.049 333.451 C 676.94 332.393 673.406 333.801 671.13 336.205 C 668.854 338.61 667.63 341.845 666.754 345.065 C 663.99 355.304 664.173 366.115 667.282 376.255 L 667.111 377.71 C 671.313 377.015 674.5 373.41 676.482 369.568 C 678.464 365.727 679.605 361.466 681.753 357.718 C 683.901 353.971 687.468 350.629 691.723 350.512 L 691.348 357.016 C 695.009 355.13 698.67 353.244 702.331 351.357 C 701.461 353.441 700.59 355.524 699.719 357.607 C 702.916 356.271 706.113 354.934 709.311 353.598 C 708.953 355.601 708.596 357.604 708.239 359.607 C 711.41 352.39 721.216 349.219 727.886 353.255 C 731.76 355.598 734.302 359.775 735.639 364.161 C 736.976 368.547 737.24 373.186 737.496 377.772 C 742.436 367.455 743.496 355.704 740.482 344.67 Z" fill="#2f2e41"/>
  </g>
</svg>