<?xml version="1.0" encoding="utf-8"?>
<svg viewBox="934.633 59.712 231.985 231.985" xmlns="http://www.w3.org/2000/svg">
  <g transform="matrix(0.466352, 0, 0, 0.466352, 868.847656, 40.023846)" style="">
    <circle cx="389.787" cy="290.941" r="248.723" fill="#f2f2f2" style=""/>
    <circle cx="393.592" cy="264.649" r="86.349" fill="#ffb6b6"/>
    <polygon points="344.022 363.767 340.121 324.334 418.022 309.767 464.022 421.767 384.022 513.767 327.022 401.767 344.022 363.767" fill="#ffb6b6"/>
    <path d="M 338.869 344.073 L 355.901 347.921 C 355.901 347.921 342.512 305.466 347.057 301.413 C 351.601 297.36 362.737 303.746 362.737 303.746 L 374.439 316.866 L 388.693 302.354 C 388.693 302.354 404.168 283.112 410.227 277.707 C 416.286 272.303 406.553 252.244 406.553 252.244 C 406.553 252.244 496.445 228.005 462.996 184.404 C 462.996 184.404 443.385 150.22 436.999 161.355 C 430.613 172.491 422.997 154.805 422.997 154.805 L 399.744 159.227 C 399.744 159.227 353.849 132.167 310.29 190.057 C 266.731 247.947 338.869 344.073 338.869 344.073 Z" fill="#2f2e41"/>
    <path d="M 555.992 476.665 C 508.802 514.925 450.422 535.715 388.832 535.715 C 332.592 535.715 279.022 518.375 234.212 486.235 C 234.292 485.395 234.372 484.565 234.442 483.735 C 235.632 470.735 236.692 458.095 237.392 447.615 C 240.102 406.925 335.032 379.805 335.032 379.805 C 335.032 379.805 335.462 380.235 336.322 380.985 C 341.562 385.585 362.832 402.265 400.132 406.925 C 433.392 411.085 444.342 391.355 447.652 381.905 C 448.652 379.025 448.952 377.095 448.952 377.095 L 546.592 423.205 C 552.962 432.305 555.452 451.905 555.942 473.935 C 555.962 474.845 555.982 475.745 555.992 476.665 Z" fill="#20c997"/>
  </g>
</svg>