<?xml version="1.0" encoding="utf-8"?>
<svg viewBox="1015.284 86.696 226.88 227.413" xmlns="http://www.w3.org/2000/svg">
  <g transform="matrix(1, 0, 0, 1, 443.527069, 66.276321)">
    <circle cx="685.197" cy="133.86" r="113.44" fill="#f2f2f2"/>
    <circle cx="689.821" cy="108.441" r="36.991" fill="#ffb8b8"/>
    <path id="bd502a69-4a38-4003-a7a1-fa248c8198be-308" data-name="bf427902-b9bf-4946-b5d7-5c1c7e04535e" d="M 722.39 84.004 C 722.39 84.004 732.021 65.592 710.832 63.918 C 710.832 63.918 692.769 47.532 674.357 60.923 C 674.357 60.923 664.314 60.923 658.822 72.287 C 658.822 72.287 650.924 69.292 649.188 77.309 C 649.188 77.309 643.408 94.047 649.188 109.111 C 654.968 124.175 656.887 125.849 656.887 125.849 C 656.887 125.849 652.832 107.155 675.949 105.481 C 699.066 103.808 720.274 89.326 722.2 107.738 C 724.127 126.149 726.245 117.832 726.245 117.832 C 726.245 117.832 744.543 91.536 722.39 84.004 Z" fill="#2f2e41"/>
    <path d="M 769.882 209.291 C 728.991 255.819 658.329 260.926 611.172 220.761 L 620.902 193.611 C 625.383 183.784 634.922 177.234 645.702 176.581 L 651.892 176.201 L 666.652 163.471 C 666.652 163.471 706.422 162.051 705.832 161.371 L 729.922 175.861 L 729.902 175.761 L 739.372 176.341 C 750.153 176.991 759.694 183.542 764.172 193.371 L 769.882 209.291 Z" fill="#20c997"/>
  </g>
</svg>