<?xml version="1.0" encoding="utf-8"?>
<svg viewBox="1117.739 121.209 226.88 226.88" xmlns="http://www.w3.org/2000/svg">
  <g transform="matrix(1, 0, 0, 1, 680.408997, -386.063812)">
    <circle cx="550.77" cy="620.713" r="113.44" fill="#f2f2f2"/>
    <circle cx="551.783" cy="580.206" r="45.236" fill="#2f2e41"/>
    <circle cx="551.802" cy="590.973" r="40.411" fill="#ffb8b8"/>
    <path d="M 635.564 695.252 C 594.673 741.781 524.011 746.887 476.854 706.722 L 486.584 679.572 C 491.065 669.746 500.604 663.195 511.384 662.542 L 517.574 662.162 L 532.334 649.432 C 532.334 649.432 572.104 648.012 571.514 647.332 L 595.604 661.822 L 595.584 661.722 L 605.054 662.302 C 615.836 662.953 625.376 669.504 629.854 679.332 L 635.564 695.252 Z" fill="#20c997"/>
    <path d="M 594.436 576.801 C 594.72 573.784 594.85 570.754 594.826 567.724 C 594.991 561.731 593.893 555.77 591.603 550.229 C 588.787 544.094 583.765 539.243 577.537 536.64 C 571.363 534.15 564.463 534.156 558.294 536.657 C 552.724 533.138 546.535 530.348 540.018 530.002 C 533.5 529.657 526.609 532.075 522.592 537.397 C 521.696 538.802 520.677 540.126 519.548 541.352 C 516.32 544.342 511.413 543.911 507.122 543.3 C 509.046 544.949 510.972 546.599 512.897 548.249 C 510.568 548.857 508.237 549.466 505.907 550.075 C 508.626 551.724 511.345 553.373 514.064 555.022 C 506.17 559.76 502.583 570.1 503.531 579.492 C 504.427 588.384 508.72 596.514 513.852 603.741 C 515.899 599.421 515.458 594.252 515.424 589.387 C 515.405 587.809 515.501 586.231 515.712 584.667 C 533.054 588.824 551.175 591.492 569.552 584.89 L 573.24 575.864 C 573.758 575.917 574.275 575.967 574.793 576.022 L 576.929 584.898 C 581.773 586.878 586.627 588.609 591.483 586.79 C 591.72 588.161 591.862 589.56 591.971 590.905 C 592.388 589.297 592.749 587.676 593.076 586.049 C 593.717 585.705 594.332 585.312 594.914 584.875 C 595.031 582.174 594.871 579.469 594.436 576.801 Z" fill="#2f2e41"/>
  </g>
</svg>