<?xml version="1.0" encoding="utf-8"?>
<svg viewBox="9.629 103.712 480.073 256.05" xmlns="http://www.w3.org/2000/svg">
  <path d="M 449.656 103.712 C 421.48 103.719 402.142 132.079 412.426 158.312 L 328.256 242.482 C 318.873 238.789 308.439 238.789 299.056 242.482 L 238.886 182.312 C 250.146 153.653 226.158 123.552 195.708 128.131 C 170.299 131.952 155.031 158.396 164.426 182.312 L 64.256 282.482 C 35.591 271.237 5.502 295.241 10.097 325.688 C 14.691 356.135 50.523 370.191 74.594 350.989 C 88.309 340.047 93.294 321.445 86.886 305.112 L 187.056 204.942 C 196.439 208.636 206.873 208.636 216.256 204.942 L 276.426 265.112 C 265.167 293.772 289.155 323.873 319.605 319.294 C 345.014 315.473 360.282 289.028 350.886 265.112 L 435.056 180.942 C 463.716 192.201 493.817 168.214 489.238 137.764 C 486.293 118.18 469.461 103.699 449.656 103.712 Z" style="fill: rgb(47, 46, 65);"/>
</svg>