<?xml version="1.0" encoding="utf-8"?>
<svg viewBox="9.666 28.389 480 416" xmlns="http://www.w3.org/2000/svg">
  <path d="M 489.666 156.389 C 489.628 121.059 460.996 92.428 425.666 92.389 L 377.666 92.389 L 377.666 76.389 C 377.639 49.891 356.164 28.417 329.666 28.389 L 169.666 28.389 C 143.168 28.417 121.694 49.891 121.666 76.389 L 121.666 92.389 L 73.666 92.389 C 38.336 92.428 9.705 121.059 9.666 156.389 L 9.666 204.389 L 489.666 204.389 L 489.666 156.389 Z M 345.666 92.389 L 153.666 92.389 L 153.666 76.389 C 153.666 67.552 160.83 60.389 169.666 60.389 L 329.666 60.389 C 338.503 60.389 345.666 67.552 345.666 76.389 L 345.666 92.389 Z M 329.666 244.389 C 329.666 257.644 318.921 268.389 305.666 268.389 L 193.666 268.389 C 180.411 268.389 169.666 257.644 169.666 244.389 L 169.666 240.389 C 169.666 238.18 167.875 236.389 165.666 236.389 L 9.666 236.389 L 9.666 380.389 C 9.666 415.735 38.32 444.389 73.666 444.389 L 425.666 444.389 C 461.012 444.389 489.666 415.735 489.666 380.389 L 489.666 236.389 L 333.666 236.389 C 331.457 236.389 329.666 238.18 329.666 240.389 L 329.666 244.389 Z" style="fill: rgb(47, 46, 65);"/>
</svg>