<?xml version="1.0" encoding="utf-8"?>
<svg viewBox="314.214 222.54 13.858 19.681" xmlns="http://www.w3.org/2000/svg">
  <g style="" transform="matrix(0.041842, 0, 0, 0.041842, 267.513245, 235.330048)">
    <path d="M 683.445 -307.257 C 689.625 -311.991 696.596 -314.139 703.436 -314.139 C 720.49 -314.139 736.535 -300.724 736.535 -281.304 L 736.535 91.379 C 736.535 110.889 720.446 124.259 703.436 124.259 C 696.553 124.259 689.583 122.067 683.401 117.289 C 615.274 64.55 499.317 -25.279 442.37 -69.382 C 434.303 -75.608 429.656 -85.165 429.656 -95.335 C 429.656 -105.418 434.347 -115.019 442.414 -121.245 C 499.361 -165.172 615.362 -254.693 683.445 -307.257 Z" style=""/>
    <path d="M 1185.456 -281.539 C 1179.295 -286.262 1172.347 -288.405 1165.528 -288.405 C 1148.528 -288.405 1132.533 -275.022 1132.533 -255.648 L 1132.533 116.154 C 1132.533 135.616 1148.571 148.955 1165.528 148.955 C 1172.389 148.955 1179.337 146.768 1185.499 142.001 C 1253.413 89.386 1369.004 -0.23 1425.772 -44.228 C 1433.814 -50.437 1438.446 -59.972 1438.446 -70.119 C 1438.446 -80.179 1433.77 -89.757 1425.728 -95.968 C 1368.96 -139.791 1253.325 -229.1 1185.456 -281.539 Z"/>
  </g>
</svg>