<?xml version="1.0" encoding="utf-8"?>
<svg viewBox="4.993 43.722 480 384" xmlns="http://www.w3.org/2000/svg">
  <path d="M161 295.28a47.6 47.6 0 01-5.48-.62 47.6 47.6 0 005.48.62zM134.64 178.13a55.62 55.62 0 00-14 10.82 54.49 54.49 0 00-7.19 9.56 54.49 54.49 0 017.19-9.56 55.62 55.62 0 0114-10.82zM216.17 257.89a71.58 71.58 0 006-23.84c.15-2.15.2-4.27.15-6.38q.08 3.15-.15 6.38a71.58 71.58 0 01-6 23.84zM134.64 178.13a56.84 56.84 0 018.11-3.64 56.84 56.84 0 00-8.11 3.64zM150.21 293.43a53.54 53.54 0 01-7.72-2.89 53.54 53.54 0 007.72 2.89zM105.78 237.19c2.66 23 16.26 42.63 34.23 52.12-18.01-9.49-31.57-29.16-34.23-52.12zM254.34 219a83.76 83.76 0 0022 51.32 70.76 70.76 0 0022.07 16.12 70.76 70.76 0 01-22.07-16.12 83.76 83.76 0 01-22-51.32q-.27-3.88-.18-7.68-.09 3.75.18 7.68zM304.5 288.82a63.47 63.47 0 01-6.1-2.43 63.47 63.47 0 006.1 2.43zM255.93 196.54a66.46 66.46 0 0116.29-31.21 66.46 66.46 0 00-16.29 31.21zM375 165.46a68.15 68.15 0 0118 42.14 68.15 68.15 0 00-18-42.14 66.69 66.69 0 00-26.27-17.2 66.69 66.69 0 0126.27 17.2zM393 219a86.19 86.19 0 01-8.2 31 86.19 86.19 0 008.2-31zM254.16 211.27a75.62 75.62 0 011.06-11.14 75.62 75.62 0 00-1.06 11.14zM383.19 253.16zM206.88 189.05a57.86 57.86 0 0115.41 38.62 57.86 57.86 0 00-15.41-38.62 57 57 0 00-30.78-17 57 57 0 0130.78 17zM190 288a54.21 54.21 0 01-10 4.65 54.21 54.21 0 0010-4.65zM105.49 224.45a59.87 59.87 0 015.2-20.64 59.87 59.87 0 00-5.2 20.64zM194.68 284.88C193.17 286 191.61 287 190 288c1.61-1 3.17-2 4.68-3.12zM216.17 257.89a69.49 69.49 0 01-5.73 10.42 69.49 69.49 0 005.73-10.42zM110.69 203.81a56.76 56.76 0 012.78-5.3 56.76 56.76 0 00-2.78 5.3zM194.68 284.88a65.39 65.39 0 0015.76-16.57 65.39 65.39 0 01-15.76 16.57z" transform="matrix(1, 0, 0, 1, -80.422813, 25.041147)" style="fill: rgb(47, 46, 65);"/>
  <path d="M 436.993 379.722 L 52.993 379.722 C 40.676 379.722 32.978 366.388 39.137 355.722 C 41.995 350.771 47.277 347.722 52.993 347.722 L 436.993 347.722 C 449.31 347.722 457.008 361.055 450.849 371.722 C 447.991 376.672 442.709 379.722 436.993 379.722 Z M 404.993 427.722 L 84.993 427.722 C 72.676 427.722 64.978 414.388 71.137 403.722 C 73.995 398.771 79.277 395.722 84.993 395.722 L 404.993 395.722 C 417.31 395.722 425.008 409.055 418.849 419.722 C 415.991 424.672 410.709 427.722 404.993 427.722 Z M 20.993 251.722 L 4.993 251.722 L 4.993 299.722 C 4.993 317.395 19.32 331.722 36.993 331.722 L 84.993 331.722 L 84.993 315.722 C 84.954 280.391 56.323 251.76 20.993 251.722 Z" style="fill: rgb(47, 46, 65);"/>
  <path d="M 468.993 219.722 L 484.993 219.722 L 484.993 155.722 L 468.993 155.722 C 415.999 155.661 373.054 112.716 372.993 59.722 L 372.993 43.722 L 116.993 43.722 L 116.993 59.722 C 116.932 112.716 73.987 155.661 20.993 155.722 L 4.993 155.722 L 4.993 219.722 L 20.993 219.722 C 73.987 219.782 116.932 262.727 116.993 315.722 L 116.993 331.722 L 372.993 331.722 L 372.993 315.722 C 373.054 262.727 415.999 219.782 468.993 219.722 Z M 244.993 283.722 C 171.092 283.722 124.904 203.722 161.855 139.722 C 198.805 75.722 291.181 75.722 328.131 139.722 C 336.557 154.316 340.993 170.87 340.993 187.722 C 340.932 240.716 297.987 283.661 244.993 283.722 Z" style="fill: rgb(47, 46, 65);"/>
  <circle cx="244.993" cy="187.722" r="64" style="fill: rgb(47, 46, 65);"/>
  <path d="M 404.993 315.722 L 404.993 331.722 L 452.993 331.722 C 470.666 331.722 484.993 317.395 484.993 299.722 L 484.993 251.722 L 468.993 251.722 C 433.663 251.76 405.032 280.391 404.993 315.722 Z M 468.993 123.722 L 484.993 123.722 L 484.993 75.722 C 484.993 58.049 470.666 43.722 452.993 43.722 L 404.993 43.722 L 404.993 59.722 C 405.032 95.052 433.663 123.683 468.993 123.722 Z M 84.993 59.722 L 84.993 43.722 L 36.993 43.722 C 19.32 43.722 4.993 58.049 4.993 75.722 L 4.993 123.722 L 20.993 123.722 C 56.323 123.683 84.954 95.052 84.993 59.722 Z" style="fill: rgb(47, 46, 65);"/>
</svg>