<?xml version="1.0" encoding="utf-8"?>
<svg viewBox="680.763 115.8 20 20" xmlns="http://www.w3.org/2000/svg">
  <g style="" transform="matrix(0.034465, 0, 0, 0.034465, 662.683228, 118.626152)">
    <path d="M 957.4 164.17 L 957.4 399.823 C 957.4 428.116 934.463 451.053 906.171 451.053 L 598.797 451.053 C 570.505 451.053 547.568 428.116 547.568 399.823 L 547.568 92.45 C 547.568 64.156 570.505 41.221 598.797 41.221 L 813.293 41.221" fill="none" stroke-linecap="round" stroke-linejoin="round" stroke-width="32" style="stroke: rgb(255, 255, 255);"/>
    <path d="M 1054.659 -54.515 C 1046.763 -63.189 1033.224 -63.515 1024.92 -55.231 L 1009.077 -39.465 C 1005.079 -35.464 1005.079 -28.982 1009.077 -24.981 L 1023.602 -10.483 C 1027.606 -6.458 1034.12 -6.458 1038.125 -10.483 L 1053.571 -25.852 C 1061.383 -33.652 1062.113 -46.355 1054.659 -54.515 Z M 977.048 -7.448 L 745.85 223.34 C 744.448 224.735 743.43 226.469 742.892 228.373 L 732.197 260.224 C 731.101 263.92 734.418 267.416 738.167 266.516 C 738.252 266.496 738.338 266.473 738.422 266.449 L 770.248 255.755 C 772.15 255.216 773.886 254.197 775.281 252.796 L 1006.069 21.575 C 1010.512 17.082 1010.512 9.851 1006.069 5.36 L 993.326 -7.448 C 988.826 -11.933 981.546 -11.933 977.048 -7.448 Z" style="stroke: rgb(255, 255, 255); fill: rgb(255, 255, 255);"/>
  </g>
</svg>