<svg width="12" height="12" viewBox="0 0 12 12" fill="none" xmlns="http://www.w3.org/2000/svg">
<g clip-path="url(#clip0_353_62)">
<path fill-rule="evenodd" clip-rule="evenodd" d="M5.75 -1.42062e-07C7.5565 -2.21027e-07 9 1.4755 9 3.2375C9 4.3145 8.393 5.288 7.5 5.9065L7.5 7.3475L6.9935 7.8705L7.503 8.5215L6.9655 9.2025L7.506 9.906L5.782 12L4 10.327L4 5.9065C3.1585 5.334 2.5 4.3545 2.5 3.237C2.5 1.4885 3.933 -6.26384e-08 5.75 -1.42062e-07V-1.42062e-07ZM6.5 5.3455C7.3355 4.8555 8 4.207 8 3.237C8 2.031 7.007 1 5.75 1C4.501 1 3.5 2.022 3.5 3.2395C3.5 4.267 4.2165 4.8855 5 5.3455L5 9.894L5.688 10.5405L6.2285 9.8845L5.698 9.1945L6.231 8.519L5.6695 7.8005L6.5 6.943L6.5 5.3455V5.3455ZM4.9375 2.5C4.9375 2.086 5.2735 1.75 5.6875 1.75C6.1015 1.75 6.4375 2.086 6.4375 2.5C6.4375 2.914 6.1015 3.25 5.6875 3.25C5.2735 3.25 4.9375 2.914 4.9375 2.5Z" fill="#2F2E41"/>
</g>
<defs>
<clipPath id="clip0_353_62">
<rect width="12" height="12" fill="white" transform="translate(0 12) rotate(-90)"/>
</clipPath>
</defs>
</svg>
