<?xml version="1.0" encoding="utf-8"?>
<svg viewBox="24.968 -0.409 416.019 416.039" xmlns="http://www.w3.org/2000/svg">
  <path d="M 235.887 -0.39 C 118.907 -1.97 23.407 93.53 24.987 210.51 C 26.547 322.7 117.897 414.05 230.087 415.61 C 347.087 417.21 442.567 321.71 440.967 204.73 C 439.427 92.52 348.077 1.17 235.887 -0.39 Z M 232.207 151.72 C 232.417 150.52 232.647 149.32 232.917 148.13 C 235.443 136.451 241.07 125.67 249.207 116.92 C 262.097 103.19 280.367 95.61 300.657 95.61 C 309.193 95.575 317.672 97.016 325.717 99.87 C 335.718 103.431 344.724 109.327 351.987 117.07 C 362.671 128.618 369.031 143.507 369.987 159.21 C 370.263 163.005 370.263 166.815 369.987 170.61 C 369.217 181.365 366.435 191.88 361.787 201.61 C 361.28 202.67 360.75 203.72 360.197 204.76 C 359.087 206.83 357.897 208.86 356.617 210.82 C 354.069 214.733 351.181 218.414 347.987 221.82 C 334.867 235.82 318.067 243.55 300.677 243.55 C 294.156 243.546 287.68 242.471 281.507 240.37 C 279.433 239.666 277.397 238.855 275.407 237.94 C 267.073 234.052 259.576 228.576 253.337 221.82 C 240.35 207.733 232.585 189.619 231.337 170.5 C 231.157 167.913 231.097 165.353 231.157 162.82 C 231.234 159.106 231.585 155.402 232.207 151.74 L 232.207 151.72 Z M 82.477 176.06 C 82.964 168.925 84.725 161.934 87.677 155.42 C 88.51 153.606 89.438 151.836 90.457 150.12 C 92.496 146.679 94.907 143.473 97.647 140.56 C 101.706 136.229 106.433 132.576 111.647 129.74 C 114.251 128.317 116.963 127.1 119.757 126.1 C 130.464 122.355 141.975 121.53 153.107 123.71 C 164.902 125.991 175.675 131.941 183.887 140.71 C 193.632 151.229 199.123 164.992 199.297 179.33 C 199.347 181.44 199.297 183.56 199.147 185.71 C 198.537 193.943 196.507 202.009 193.147 209.55 C 191.538 213.181 189.621 216.667 187.417 219.97 C 183.178 226.376 177.843 231.985 171.657 236.54 C 170.157 237.61 168.597 238.61 166.987 239.61 C 163.82 241.496 160.47 243.054 156.987 244.26 C 151.779 246.08 146.303 247.013 140.787 247.02 C 139.857 247.02 138.927 247.02 138.007 246.94 C 136.17 246.839 134.34 246.632 132.527 246.32 C 130.723 246.006 128.937 245.595 127.177 245.09 C 124.533 244.326 121.952 243.36 119.457 242.2 C 118.617 241.81 117.797 241.4 116.977 240.97 C 98.977 231.48 85.407 211.81 82.747 188.85 C 82.627 187.8 82.527 186.75 82.457 185.69 C 82.231 182.484 82.238 179.265 82.477 176.06 Z M 136.397 354.66 C 109.772 337.11 88.373 312.702 74.457 284.01 C 73.513 282.105 74.225 279.794 76.077 278.75 C 94.657 268.3 118.387 262.61 140.807 262.61 C 157.807 262.61 171.507 264.61 183.497 268.49 C 189.347 270.415 190.919 277.951 186.326 282.054 C 186.248 282.124 186.168 282.193 186.087 282.26 C 162.737 301.26 147.687 324.8 140.617 353.01 C 140.161 354.872 137.996 355.719 136.397 354.66 Z M 232.987 383.61 C 210.473 383.633 188.166 379.314 167.287 370.89 C 165.528 370.164 164.524 368.298 164.887 366.43 C 165.287 364.38 165.727 362.51 166.117 360.95 C 173.237 332.52 190.877 308.95 217.117 292.77 C 240.407 278.42 270.117 270.52 300.637 270.52 C 331.797 270.52 360.637 278.1 384.117 292.43 C 385.36 293.208 385.763 294.831 385.027 296.1 C 353.517 350.233 295.624 383.555 232.987 383.61 Z" style="fill: rgb(47, 46, 65);"/>
</svg>