<svg xmlns="http://www.w3.org/2000/svg" version="1.1" xmlns:xlink="http://www.w3.org/1999/xlink" xmlns:svgjs="http://svgjs.com/svgjs" width="1440" height="950" preserveAspectRatio="none" viewBox="0 0 1440 950"><g clip-path="url(&quot;#SvgjsClipPath1176&quot;)" fill="none"><rect width="1440" height="950" x="0" y="0" fill="rgba(32, 201, 151, 1)"></rect><circle r="158.335" cx="-98.91" cy="-79.41" stroke="#2f2e41" stroke-opacity="0.59" stroke-width="2"></circle><circle r="158.335" cx="708.62" cy="541.13" stroke="#2f2e41" stroke-opacity="0.59" stroke-width="2"></circle><circle r="232.82" cx="1388.33" cy="451.35" stroke="#2f2e41" stroke-opacity="0.59" stroke-width="2"></circle><circle r="177.855" cx="185.68" cy="320.57" stroke="#2f2e41" stroke-opacity="0.59" stroke-width="2"></circle><circle r="199.415" cx="1302.62" cy="663.51" stroke="#2f2e41" stroke-opacity="0.59" stroke-width="2"></circle><circle r="294.065" cx="1253.34" cy="425.93" stroke="#2f2e41" stroke-opacity="0.59" stroke-width="2"></circle><circle r="292.315" cx="456.92" cy="159.58" stroke="#2f2e41" stroke-opacity="0.59" stroke-width="2"></circle><circle r="282.895" cx="521.39" cy="944.22" stroke="#2f2e41" stroke-opacity="0.59" stroke-width="2"></circle><circle r="192.325" cx="818.83" cy="786.59" stroke="#2f2e41" stroke-opacity="0.59" stroke-width="2"></circle><circle r="268.415" cx="1004.16" cy="386.66" stroke="#2f2e41" stroke-opacity="0.59" stroke-width="2"></circle><circle r="146.375" cx="1031.27" cy="203.72" stroke="#2f2e41" stroke-opacity="0.59" stroke-width="2"></circle><circle r="282.5" cx="1272.82" cy="892.91" stroke="#2f2e41" stroke-opacity="0.59" stroke-width="2"></circle><circle r="160.515" cx="1384.16" cy="336.77" stroke="#2f2e41" stroke-opacity="0.59" stroke-width="2"></circle><circle r="149.61" cx="309.72" cy="853.95" stroke="#2f2e41" stroke-opacity="0.59" stroke-width="2"></circle><circle r="217.18" cx="607.22" cy="311.81" stroke="#2f2e41" stroke-opacity="0.59" stroke-width="2"></circle><circle r="198.74" cx="497.64" cy="136.78" stroke="#2f2e41" stroke-opacity="0.59" stroke-width="2"></circle><circle r="292.35" cx="186.95" cy="668.5" stroke="#2f2e41" stroke-opacity="0.59" stroke-width="2"></circle><circle r="186.68" cx="1354.3" cy="126.06" stroke="#2f2e41" stroke-opacity="0.59" stroke-width="2"></circle><circle r="311.225" cx="170.23" cy="264.35" stroke="#2f2e41" stroke-opacity="0.59" stroke-width="2"></circle></g><defs><clipPath id="SvgjsClipPath1176"><rect width="1440" height="950" x="0" y="0"></rect></clipPath></defs></svg>