<?xml version="1.0" encoding="utf-8"?>
<svg viewBox="-360.912 57.888 1280 720" width="1280" height="720" xmlns="http://www.w3.org/2000/svg">
  <rect x="-360.103" y="58.337" width="1280" height="720" style="stroke: rgb(32, 201, 151); stroke-width: 0px; fill: rgb(32, 201, 151);"/>
  <g style="" transform="matrix(2.118624, 0, 0, 2.118624, -368.984375, -291.223938)">
    <g transform="matrix(0.1, 0, 0, -0.1, 0, 519)" fill="#000000" stroke="none" style="">
      <path d="M1130 3580 c6 -11 56 -89 111 -173 256 -388 306 -609 194 -854 -128 -279 -402 -454 -865 -552 -150 -32 -294 -51 -438 -58 -77 -3 -132 -10 -132 -16 0 -14 257 -2 390 18 469 71 815 230 977 448 167 225 188 468 63 734 -58 125 -280 473 -301 473 -6 0 -6 -7 1 -20z" style="fill: rgb(230, 230, 230);"/>
      <path d="M2390 3589 c0 -25 62 -193 96 -261 93 -184 204 -335 385 -523 66 -67 119 -125 119 -127 0 -3 -25 -22 -55 -43 -84 -57 -213 -200 -272 -300 -216 -363 -222 -798 -18 -1205 36 -71 130 -219 202 -320 16 -21 16 -23 2 -18 -9 4 -75 17 -145 29 -190 34 -411 32 -547 -4 -54 -14 -139 -46 -189 -71 l-91 -44 -86 87 c-135 137 -274 221 -477 290 -175 58 -299 75 -519 68 -105 -4 -207 -12 -245 -21 -82 -19 -80 -19 -80 0 0 29 -60 165 -97 221 -53 80 -146 169 -251 241 -50 34 -98 65 -106 68 -31 12 -15 -15 22 -37 141 -86 268 -202 327 -299 34 -56 85 -178 85 -203 0 -7 -32 -23 -73 -36 -136 -43 -377 -172 -377 -201 0 -15 6 -13 68 29 114 77 372 186 392 165 4 -5 22 -95 39 -201 61 -380 105 -497 231 -623 136 -136 321 -190 495 -145 134 35 215 95 317 233 39 53 99 126 132 161 57 59 177 161 190 161 12 0 57 -81 87 -156 33 -86 54 -209 64 -386 4 -65 11 -118 16 -118 12 0 11 65 -1 213 -15 183 -47 299 -113 411 -33 56 -33 57 47 98 218 113 463 132 806 64 l115 -23 106 -105 c173 -171 380 -316 639 -445 194 -98 488 -214 538 -212 21 0 15 5 -28 21 -455 173 -697 297 -935 478 -106 80 -272 236 -263 245 3 4 51 -1 105 -11 149 -27 412 -25 518 4 130 36 220 85 301 166 109 109 154 223 154 389 0 283 -139 557 -438 869 -64 67 -211 207 -327 312 -115 104 -211 193 -213 196 -5 12 115 60 216 88 90 24 113 26 302 26 233 1 274 -5 570 -84 102 -27 214 -55 250 -61 l65 -13 50 -100 c196 -396 572 -624 994 -603 199 10 320 57 516 200 60 44 112 82 114 83 1 2 1 8 0 13 -2 6 -58 -29 -124 -77 -215 -157 -326 -195 -560 -196 -133 0 -161 3 -247 26 -296 83 -524 271 -671 555 -26 50 -47 93 -47 95 0 1 46 4 103 4 81 1 117 7 174 26 137 48 206 106 493 418 163 177 265 242 431 276 127 26 259 13 432 -43 9 -3 17 -1 17 5 0 6 -37 23 -82 38 -75 25 -98 28 -228 28 -132 0 -153 -2 -227 -27 -150 -50 -206 -96 -516 -429 -131 -142 -231 -216 -330 -247 -74 -22 -198 -34 -246 -23 -32 7 -36 13 -58 77 -13 39 -33 115 -45 170 -38 173 -27 571 18 690 4 9 0 15 -8 15 -28 0 -53 -192 -53 -410 0 -210 12 -297 61 -452 14 -44 24 -81 22 -83 -6 -5 -144 27 -290 66 -243 66 -326 80 -521 86 -238 8 -373 -15 -536 -88 l-65 -30 -74 73 c-252 247 -435 519 -509 756 -14 45 -29 82 -34 82 -5 0 -9 -5 -9 -11z m841 -1122 c429 -388 614 -612 706 -859 108 -288 78 -524 -88 -691 -79 -79 -183 -133 -314 -163 -116 -27 -339 -25 -505 5 -145 25 -139 21 -254 191 -81 121 -148 254 -191 384 -145 433 -44 904 257 1192 52 51 157 134 169 134 3 0 102 -87 220 -193z m-2153 -1353 c270 -40 523 -162 694 -335 43 -44 78 -85 78 -92 0 -7 -13 -20 -29 -30 -59 -35 -192 -171 -282 -288 -103 -136 -173 -195 -271 -228 -186 -64 -378 -19 -520 122 -119 117 -173 258 -222 583 -15 94 -31 187 -36 205 -6 19 -10 35 -10 36 0 3 102 23 165 32 101 14 320 12 433 -5z" style="fill: rgb(230, 230, 230);"/>
      <path d="M2945 3563 c-4 -20 -24 -78 -45 -128 -21 -49 -42 -113 -45 -140 -25 -189 141 -289 453 -272 230 13 456 83 596 185 97 71 192 211 230 340 11 38 12 52 3 52 -7 0 -22 -34 -34 -74 -28 -91 -104 -208 -176 -271 -209 -183 -710 -273 -934 -168 -121 56 -149 156 -86 308 58 142 75 205 54 205 -5 0 -12 -17 -16 -37z" style="fill: rgb(230, 230, 230);"/>
      <path d="M5738 979 c-421 -49 -744 -298 -824 -637 -28 -117 -16 -342 18 -342 6 0 8 9 3 23 -3 12 -9 70 -12 128 -15 300 141 546 442 695 187 93 414 133 645 114 58 -4 107 -6 109 -4 28 27 -215 42 -381 23z" style="fill: rgb(230, 230, 230);"/>
      <path d="M2560 381 c-84 -26 -153 -85 -178 -154 -11 -29 -23 -91 -27 -139 -6 -77 -5 -88 9 -88 13 0 16 12 16 73 0 192 94 291 275 291 94 0 177 -29 287 -100 74 -47 212 -175 249 -229 22 -31 49 -47 49 -27 0 12 -113 138 -165 185 -105 92 -216 156 -320 183 -54 15 -155 17 -195 5z" style="fill: rgb(230, 230, 230);"/>
    </g>
  </g>
</svg>