<?xml version="1.0" encoding="utf-8"?>
<svg viewBox="118.893 21.472 248.59 394.409" xmlns="http://www.w3.org/2000/svg">
  <ellipse style="stroke: rgb(0, 0, 0); stroke-width: 0px; fill: rgb(32, 201, 151);" cx="309.577" cy="130.227" rx="57.906" ry="57.906"/>
  <g transform="matrix(1, 0, 0, 1, 61.247215, -154.788422)">
    <path d="M 236.341 570.669 L 167.094 570.669 L 166.419 567.751 L 162.717 551.697 L 159.021 567.751 L 158.352 570.669 L 87.12 570.669 C 86.965 569.685 86.817 568.713 86.668 567.751 C 84.591 554.495 82.537 543.458 80.798 540.3 C 75.751 531.157 80.454 536.884 85.838 531.495 C 91.222 526.111 85.838 531.495 82.686 524.583 C 79.528 517.672 96.629 465.149 96.629 465.149 L 213.289 466.871 C 213.289 466.871 234.836 504.57 235.059 509.77 C 235.185 512.728 235.786 542.566 236.278 567.751 C 236.301 568.73 236.318 569.708 236.341 570.669 Z" fill="#2f2e41" style=""/>
    <path d="M 168.301 501.675 C 168.301 501.675 217.954 524.518 225.777 506.996 C 233.599 489.474 229.727 466.053 224.881 462.988 C 220.035 459.922 214.713 445.799 221.803 436.038 C 228.892 426.277 217.74 409.788 214.618 408.104 C 212.24 406.822 205.772 334.571 202.821 300.173 C 201.888 289.311 194.667 280.008 184.376 276.41 L 172.638 257.453 L 142.527 257.182 L 127.484 278.038 L 105.774 286.158 L 89.478 353.458 C 89.478 353.458 89.32 383.185 92.745 414.925 C 93.811 424.8 95.223 434.871 97.095 444.301 C 101.504 466.514 82.299 484.805 93.278 489.01 C 123.898 500.737 168.301 501.675 168.301 501.675 Z" fill="#e6e6e6" style="stroke-width: 1.796; vector-effect: non-scaling-stroke;"/>
    <path d="M 105.975 458.405 L 201.496 454.972 C 204.226 454.972 206.438 457.184 206.438 459.913 L 206.438 507.81 C 206.438 510.539 204.226 512.752 201.496 512.752 L 111.696 512.752 C 108.967 512.752 106.755 510.539 106.755 507.81 C 101.46 494.315 97.03 481.18 101.033 463.346 C 101.033 460.617 103.246 458.405 105.975 458.405 Z" fill="#3f3d56" style="stroke-width: 1.796; vector-effect: non-scaling-stroke;"/>
    <rect x="116.645" y="464.29" width="78.601" height="1.144" fill="#2f2e41" style="stroke-width: 1.796; vector-effect: non-scaling-stroke;"/>
    <rect x="116.645" y="480.814" width="78.601" height="2.45" fill="#2f2e41" style="stroke-width: 1.796; vector-effect: non-scaling-stroke;"/>
    <rect x="116.645" y="429.163" width="72.095" height="35.179" fill="#20c997" style="stroke-width: 1.796; vector-effect: non-scaling-stroke;"/>
    <rect x="116.645" y="429.163" width="72.095" height="35.179" opacity="0.2" style="isolation: isolate; stroke-width: 1.796; vector-effect: non-scaling-stroke;"/>
    <rect x="139.012" y="429.163" width="49.728" height="35.179" fill="#20c997" style="stroke-width: 1.796; vector-effect: non-scaling-stroke;"/>
    <path d="M 180.968 435.037 L 171.149 435.037 C 170.887 435.037 170.724 434.754 170.854 434.528 C 170.915 434.423 171.027 434.358 171.149 434.358 L 180.968 434.358 C 181.23 434.358 181.393 434.641 181.263 434.868 C 181.202 434.973 181.09 435.037 180.968 435.037 Z" fill="#fff" style="stroke-width: 1.796; vector-effect: non-scaling-stroke;"/>
    <path d="M 132.543 459.576 L 122.724 459.576 C 122.462 459.575 122.3 459.291 122.431 459.065 C 122.492 458.961 122.603 458.897 122.724 458.896 L 132.543 458.896 C 132.805 458.896 132.968 459.179 132.838 459.406 C 132.777 459.511 132.665 459.576 132.543 459.576 Z" fill="#fff" style="stroke-width: 1.796; vector-effect: non-scaling-stroke;"/>
    <path d="M 151.436 435.037 L 121.223 435.037 C 121.052 435.041 120.903 434.922 120.868 434.755 C 120.828 434.549 120.994 434.361 121.204 434.375 L 151.597 434.375 C 151.835 434.506 151.843 434.845 151.61 434.986 C 151.557 435.018 151.497 435.036 151.436 435.037 L 151.436 435.037 Z" fill="#fff" style="stroke-width: 1.796; vector-effect: non-scaling-stroke;"/>
    <path d="M 199.863 512.231 L 138.837 525.765 C 134.774 525.765 131.48 522.472 131.48 518.409 C 125.487 503.076 125.385 488.704 131.48 475.341 C 131.48 471.279 134.774 467.985 138.837 467.985 L 199.863 454.451 C 203.925 454.451 207.219 457.745 207.219 461.807 C 212.859 477.892 217.522 493.678 207.219 504.875 C 207.219 508.938 203.925 512.231 199.863 512.231 Z" fill="#2f2e41" style="stroke-width: 1.796; vector-effect: non-scaling-stroke;"/>
    <path d="M 144.754 477.126 L 145.535 481.949 L 185.356 480.911 C 185.49 478.386 167.402 476.495 148.223 477.03 L 144.754 477.126 Z" fill="#3f3d56" style="stroke-width: 1.796; vector-effect: non-scaling-stroke;"/>
    <path d="M 144.754 489.141 L 145.535 493.964 L 185.356 492.926 C 185.49 490.401 167.402 488.51 148.223 489.045 L 144.754 489.141 Z" fill="#3f3d56" style="stroke-width: 1.796; vector-effect: non-scaling-stroke;"/>
    <path d="M 144.754 503.445 L 145.535 508.268 L 185.356 507.23 C 185.49 504.704 167.402 502.814 148.223 503.348 L 144.754 503.445 Z" fill="#3f3d56" style="stroke-width: 1.796; vector-effect: non-scaling-stroke;"/>
    <path d="M 214.776 404.857 L 213.654 415.623 L 213.391 418.114 L 212.988 422.112 L 204.325 505.212 C 205.798 510.142 203.759 515.446 199.363 518.119 C 194.22 521.185 187.565 519.506 184.492 514.366 C 184.44 514.278 184.405 514.191 184.352 514.103 C 181.29 508.763 183.031 501.957 188.28 498.742 C 188.803 498.442 189.348 498.184 189.911 497.97 L 189.841 495.638 L 189.63 488.326 L 189.472 482.802 L 189.139 471.807 L 189.017 467.546 L 188.613 453.728 L 188.227 440.401 L 187.754 424.251 L 187.386 411.836 L 191.857 410.696 L 214.776 404.857 Z" fill="#a0616a" style="stroke-width: 1.796; vector-effect: non-scaling-stroke;"/>
    <path d="M 223.439 390.812 C 223.035 392.867 222.667 394.195 222.404 394.622 C 220.142 398.164 218.757 393.215 220.002 402.702 C 221.001 410.402 215.004 409.437 217.161 411.082 C 220.721 413.801 215.811 415.003 213.654 416.473 C 212.689 417.122 215.36 416.968 216.465 417.869 C 216.99 418.281 214.494 419.471 215.109 419.731 C 217.459 420.837 216.109 421.675 212.988 422.324 C 207.815 423.383 197.802 423.905 191.752 424.11 C 190.034 424.189 188.631 424.221 187.754 424.253 C 187.105 424.268 186.737 424.268 186.737 424.268 C 186.737 424.268 185.211 423.288 184.58 420.3 C 184.124 418.213 184.124 415.13 185.387 410.702 C 186.158 407.983 187.473 406.038 188.245 404.473 C 188.692 403.743 188.901 402.892 188.841 402.038 L 188.841 402.022 C 188.718 401.216 188.14 400.472 186.825 399.682 C 184.457 398.259 185.772 395.271 187.614 392.456 C 189.367 389.816 191.577 387.302 191.577 386.385 C 191.577 384.44 176.987 343.109 176.987 343.109 L 182.353 280.702 C 186.445 277.892 191.413 276.652 196.346 277.208 C 199.731 277.65 203.501 279.073 207.376 282.267 C 210.76 285.066 214.232 289.24 217.564 295.28 C 231.733 320.942 226.455 375.664 223.439 390.812 Z" fill="#e6e6e6" style="stroke-width: 1.796; vector-effect: non-scaling-stroke;"/>
    <circle cx="152.685" cy="218.789" r="31.318" fill="#a0616a" style="stroke-width: 1.796; vector-effect: non-scaling-stroke;"/>
    <path d="M 185.277 234.723 C 185.277 234.723 176.587 241.819 171.822 243.889 C 173.141 239.308 174.516 231.441 175.831 226.873 C 176.515 224.469 177.214 222.012 177.103 219.528 C 176.982 217.026 175.911 214.443 173.79 213.147 C 170.016 210.831 165.15 213.469 165.031 217.895 C 165.01 218.672 165.146 219.445 165.432 220.167 C 163.356 220.025 162.184 217.654 161.93 215.581 C 161.676 213.508 161.868 211.249 160.722 209.491 C 159.618 207.787 157.437 207.01 155.395 207.104 C 153.369 207.188 151.445 208.019 149.63 208.966 C 144.44 211.651 139.726 215.357 134.142 217.129 C 133.022 217.485 131.871 217.735 130.704 217.877 C 130.745 214.5 129.626 211.211 127.533 208.561 C 127.23 211.707 126.343 214.769 124.918 217.59 C 122.225 217.066 119.833 215.537 118.227 213.314 C 116.479 210.782 116.049 207.517 116.461 204.473 C 116.66 203.075 117.001 201.701 117.477 200.371 C 118.299 200.174 119.099 199.896 119.866 199.542 C 121.558 198.8 123.088 197.731 124.366 196.397 C 122.639 196.469 120.909 196.346 119.208 196.031 C 119.251 195.93 119.289 195.842 119.332 195.741 C 120.305 193.615 121.382 191.419 123.262 190.039 C 125.141 188.659 128.052 188.385 129.684 190.067 C 138.52 176.181 156.94 172.087 170.826 180.922 C 170.975 181.017 171.123 181.113 171.27 181.21 C 170.053 182.599 169.12 184.212 168.522 185.958 C 170.372 185.007 172.337 184.299 174.369 183.851 C 175.799 185.448 176.704 187.364 176.316 189.414 C 178.687 190.568 183.312 192.492 181.126 193.758 C 192.889 204.288 194.688 222.047 185.277 234.723 L 185.277 234.723 Z" fill="#2f2e41" style="stroke-width: 1.796; vector-effect: non-scaling-stroke;"/>
    <path d="M 146.45 449.841 C 146.064 455.818 140.911 460.352 134.934 459.973 C 134.837 459.955 134.738 459.943 134.64 459.937 C 128.503 459.432 123.879 454.14 124.201 447.991 C 124.255 447.393 124.354 446.799 124.495 446.215 L 122.535 444.953 L 116.385 440.971 L 111.754 437.982 L 102.503 432.015 L 98.926 429.712 L 98.448 429.405 L 87.311 422.201 L 78.368 416.431 L 77.608 415.941 L 76.113 414.973 L 62.538 406.213 L 58.887 403.861 C 58.875 403.848 58.887 403.848 58.887 403.848 C 58.765 403.616 66.447 399.805 66.324 399.573 C 64.388 395.738 61.938 392.516 65.099 378.745 L 61.877 372.95 L 70.11 379.982 L 72.009 381.612 L 75.072 384.209 L 112.954 416.529 L 138.634 438.435 C 143.527 440.021 146.737 444.705 146.45 449.841 Z" fill="#a0616a" style="stroke-width: 1.796; vector-effect: non-scaling-stroke;"/>
    <path d="M 139.516 331.11 L 97.039 396.424 L 114.106 415.5 L 112.954 416.529 L 98.448 429.405 L 94.344 433.044 L 86.748 431.501 C 86.748 431.501 85.241 429.209 77.314 428.033 C 69.387 426.857 74.006 424.162 77.51 418.893 C 78.343 417.632 75.109 419.616 74.9 419.175 C 74.802 418.906 72.842 418.011 72.45 417.95 C 70.833 417.644 72.413 416.725 70.085 416.247 C 66.349 415.488 66.128 418.134 58.887 403.861 C 58.875 403.848 58.887 403.848 58.887 403.848 C 58.765 403.616 58.655 403.395 58.532 403.162 C 56.596 399.328 57.993 388.669 61.154 374.898 C 65.981 353.898 74.9 325.67 82.325 303.483 C 90.159 280.117 120.349 273.995 136.667 292.462 C 146.192 303.242 147.357 319.051 139.516 331.11 L 139.516 331.11 Z" fill="#e6e6e6" style="stroke-width: 1.796; vector-effect: non-scaling-stroke;"/>
    <path d="M 156.401 498.761 C 157.061 498.875 157.597 498.232 157.366 497.603 C 157.331 497.508 157.28 497.42 157.215 497.343 L 157.185 497.1 L 157.216 497.047 C 158.119 495.49 160.368 495.494 161.265 497.055 C 161.363 497.226 161.44 497.41 161.492 497.601 C 161.98 499.374 162.659 501.174 162.654 502.983 C 162.651 503.783 162.51 504.577 162.237 505.328 C 164.331 501.95 165.674 498.16 166.176 494.217 C 166.3 493.228 166.37 492.232 166.383 491.235 C 166.394 490.417 166.368 489.601 166.307 488.785 C 165.968 484.362 164.585 480.082 162.271 476.298 C 161.033 475.405 160.099 474.155 159.593 472.715 C 159.409 472.197 159.302 471.655 159.273 471.106 C 159.421 471.145 160.123 468.914 160.028 468.759 C 160.277 468.468 160.671 468.358 160.938 468.077 C 162.266 466.681 163.796 467.146 164.35 469.34 C 165.983 470.44 165.816 471.901 164.57 473.171 C 163.777 473.978 163.531 475.175 162.814 476.056 C 162.865 476.142 162.919 476.227 162.971 476.313 C 163.913 477.899 164.697 479.573 165.312 481.312 C 165.343 479.454 165.814 477.631 166.687 475.991 C 167.554 474.47 168.971 473.275 170.244 472.025 C 171.557 470.717 173.795 471.32 174.272 473.112 C 174.326 473.315 174.353 473.524 174.353 473.734 L 174.352 473.796 C 174.177 473.868 174.005 473.945 173.836 474.029 C 173.023 474.436 172.955 475.57 173.714 476.071 C 173.814 476.137 173.924 476.187 174.04 476.22 L 174.063 476.227 C 173.931 476.808 173.755 477.377 173.537 477.931 C 174.261 483.557 170.97 485.159 166.616 484.702 C 166.514 484.739 166.414 484.776 166.312 484.811 C 166.843 487.252 167.054 489.751 166.94 492.246 C 166.869 493.717 166.678 495.181 166.37 496.621 L 166.384 496.571 C 166.902 494.991 167.95 493.638 169.35 492.741 C 171.427 491.432 174.158 491.197 176.344 490.209 C 177.286 489.76 178.361 490.497 178.28 491.538 C 178.273 491.618 178.26 491.698 178.239 491.776 L 178.224 491.829 C 177.906 491.915 177.593 492.02 177.288 492.144 C 177.114 492.215 176.942 492.293 176.772 492.377 C 175.96 492.783 175.892 493.917 176.65 494.418 C 176.751 494.484 176.861 494.535 176.977 494.568 L 177 494.574 L 177.048 494.588 C 176.376 495.758 175.507 496.803 174.48 497.678 C 173.001 502.324 169.161 502.299 165.288 500.405 L 165.285 500.405 C 164.599 502.279 163.719 504.076 162.661 505.768 L 155.803 504.906 C 155.788 504.827 155.775 504.745 155.763 504.666 C 156.393 504.786 157.035 504.828 157.675 504.792 C 157.244 504.103 156.815 503.41 156.384 502.722 C 156.374 502.709 156.365 502.695 156.357 502.681 C 156.139 502.329 155.918 501.979 155.7 501.627 L 155.7 501.627 C 155.81 500.645 156.045 499.682 156.4 498.761 L 156.401 498.761 Z" fill="#f2f2f2" style="stroke-width: 1.796; vector-effect: non-scaling-stroke;"/>
  </g>
</svg>