<?xml version="1.0" encoding="utf-8"?>
<svg viewBox="94.592 3.72 403.633 358.734" xmlns="http://www.w3.org/2000/svg">
  <rect x="94.592" y="3.72" rx="21" ry="21" width="221.749" height="358.734" style="fill: rgb(217, 217, 217);"/>
  <path d="M 285.447 324.553 C 286.8 324.637 287.547 322.957 286.523 321.979 L 286.422 321.575 C 286.436 321.541 286.449 321.509 286.462 321.477 C 287.83 318.217 292.463 318.239 293.82 321.504 C 295.023 324.402 296.555 327.306 296.932 330.37 C 297.101 331.723 297.025 333.1 296.725 334.427 C 299.544 328.269 301.027 321.544 301.027 314.78 C 301.027 313.081 300.934 311.382 300.744 309.687 C 300.587 308.3 300.373 306.923 300.093 305.557 C 298.584 298.176 295.317 291.147 290.604 285.275 C 288.339 284.037 286.449 282.101 285.307 279.78 C 284.897 278.943 284.577 278.044 284.424 277.126 C 284.681 277.16 285.396 273.233 285.203 272.993 C 285.561 272.447 286.204 272.175 286.596 271.644 C 288.548 268.998 291.238 269.459 292.642 273.055 C 295.64 274.569 295.669 277.079 293.829 279.493 C 292.658 281.029 292.498 283.107 291.471 284.752 C 291.577 284.887 291.686 285.018 291.792 285.153 C 293.73 287.638 295.405 290.31 296.818 293.117 C 296.419 289.998 297.008 286.24 298.015 283.818 C 299.158 281.058 301.303 278.733 303.192 276.346 C 305.46 273.481 310.111 274.731 310.511 278.365 C 310.514 278.4 310.519 278.435 310.522 278.47 C 310.242 278.629 309.966 278.797 309.698 278.974 C 308.167 279.987 308.697 282.36 310.51 282.64 L 310.551 282.646 C 310.45 283.657 310.277 284.659 310.023 285.644 C 312.445 295.012 307.215 298.424 299.747 298.578 C 299.583 298.663 299.422 298.747 299.257 298.828 C 300.014 300.958 300.619 303.143 301.066 305.358 C 301.467 307.315 301.747 309.294 301.904 311.281 C 302.097 313.787 302.08 316.306 301.869 318.809 L 301.881 318.72 C 302.419 315.964 303.915 313.39 306.087 311.606 C 309.324 308.947 313.898 307.968 317.389 305.831 C 319.07 304.802 321.224 306.132 320.931 308.081 L 320.917 308.174 C 320.395 308.385 319.89 308.63 319.398 308.905 C 319.118 309.062 318.843 309.231 318.575 309.408 C 317.044 310.421 317.573 312.795 319.387 313.075 L 319.428 313.081 C 319.458 313.085 319.483 313.089 319.514 313.094 C 318.621 315.212 317.378 317.177 315.823 318.872 C 314.308 327.051 307.801 327.827 300.842 325.445 L 300.838 325.445 C 300.077 328.759 298.965 331.997 297.536 335.083 L 285.742 335.083 C 285.701 334.952 285.663 334.817 285.625 334.685 C 286.715 334.753 287.814 334.689 288.887 334.49 C 288.013 333.417 287.138 332.335 286.263 331.261 C 286.243 331.24 286.225 331.22 286.209 331.198 C 285.764 330.649 285.316 330.103 284.872 329.554 L 284.872 329.553 C 284.844 327.867 285.046 326.185 285.447 324.553 Z" fill="#f2f2f2" style=""/>
  <path d="M 128.807 335.316 C 128.807 335.748 129.154 336.095 129.586 336.095 L 393.519 336.095 C 393.951 336.095 394.3 335.748 394.3 335.316 C 394.3 334.884 393.951 334.537 393.519 334.537 L 129.586 334.537 C 129.154 334.537 128.807 334.884 128.807 335.316 Z" fill="#ccc" style=""/>
  <path d="M 485.316 335.921 L 350.137 335.921 C 343.019 335.921 337.229 330.129 337.229 323.013 L 337.229 54.981 C 337.229 47.863 343.019 42.071 350.137 42.071 L 485.316 42.071 C 492.433 42.071 498.225 47.863 498.225 54.981 L 498.225 323.013 C 498.225 330.129 492.433 335.921 485.316 335.921 Z M 350.137 43.38 C 343.731 43.38 338.538 48.573 338.538 54.979 L 338.538 323.013 C 338.538 329.419 343.731 334.612 350.137 334.612 L 485.316 334.612 C 491.723 334.612 496.916 329.419 496.916 323.013 L 496.916 140.7 C 496.916 86.952 453.344 43.38 399.596 43.38 L 350.137 43.38 Z" fill="#e6e6e6" style=""/>
  <g transform="matrix(0.654454, 0, 0, 0.654454, 128.806473, 42.071171)" style="">
    <circle cx="377.13408" cy="178.11811" r="24" fill="#e6e6e6"/>
    <circle cx="505.80075" cy="178.11811" r="24" fill="#e6e6e6"/>
    <circle cx="441.46741" cy="178.11811" r="24" fill="#e6e6e6"/>
  </g>
  <circle cx="375.623" cy="203.798" r="15.707" fill="#e6e6e6" style=""/>
  <circle cx="459.83" cy="203.798" r="15.707" fill="#e6e6e6" style=""/>
  <circle cx="417.727" cy="203.798" r="15.707" fill="#e6e6e6" style=""/>
  <circle cx="375.623" cy="248.956" r="15.707" fill="#e6e6e6" style=""/>
  <circle cx="459.508" cy="294.036" r="15.707" fill="#e6e6e6" style=""/>
  <ellipse cx="397.008" cy="294.036" rx="36.977" ry="15.707" fill="#e6e6e6" style=""/>
  <circle cx="459.83" cy="248.956" r="15.707" fill="#e6e6e6" style=""/>
  <circle cx="417.727" cy="248.956" r="15.707" fill="#20c997" style=""/>
  <path d="M 420.813 60.396 L 270.594 60.396 C 266.14 60.396 262.518 64.018 262.518 68.472 L 262.518 123.655 C 262.518 128.109 266.14 131.731 270.594 131.731 L 420.813 131.731 C 425.267 131.731 428.889 128.109 428.889 123.655 L 428.889 68.472 C 428.889 64.018 425.267 60.396 420.813 60.396 Z" fill="#fff" style=""/>
  <path d="M 420.813 60.396 L 270.594 60.396 C 266.14 60.396 262.518 64.018 262.518 68.472 L 262.518 123.655 C 262.518 128.109 266.14 131.731 270.594 131.731 L 420.813 131.731 C 425.267 131.731 428.889 128.109 428.889 123.655 L 428.889 68.472 C 428.889 64.018 425.267 60.396 420.813 60.396 Z M 428.04 123.655 C 428.04 127.642 424.8 130.882 420.813 130.882 L 270.594 130.882 C 266.607 130.882 263.367 127.642 263.367 123.655 L 263.367 68.472 C 263.367 64.485 266.607 61.246 270.594 61.246 L 420.813 61.246 C 424.8 61.246 428.04 64.485 428.04 68.472 L 428.04 123.655 Z" fill="#3f3d56" style=""/>
  <rect x="276.659" y="93.773" width="138.09" height="4.581" rx="3.5" ry="3.5" fill="#20c997" style=""/>
  <g transform="matrix(0.654454, 0, 0, 0.654454, 128.806473, 42.071171)" style="">
    <g>
      <polygon points="67.95213 180.42129 65.90768 192.59602 84.03834 236.69982 93.76596 231.69877 84.29796 190.42664 82.93717 174.67575 67.95213 180.42129" fill="#a0616a"/>
      <path d="M87.96609,111.92855s-9.49261-4.59838-16.85857,10.93887c-7.36596,15.53725-6.45381,49.61433-6.45381,49.61433,0,0-2.68212,2.55393-.9795,4.34201s3.28993,4.62577,1.55307,7.89681c-.9154,1.72399-3.03398,5.09676,.43536,6.05489,3.46934,.95813,19.69791-3.56816,19.69791-3.56816,0,0,6.06837-2.71848,2.62039-4.54929-3.44797-1.83081,1.4081-12.90537,1.4081-12.90537l4.01246-31.99147-5.43541-25.83262Z" fill="#20c997"/>
      <ellipse cx="91.85157" cy="241.9309" rx="7.21689" ry="12.15477" transform="translate(-66.97226 37.62166) rotate(-17.07063)" fill="#a0616a"/>
    </g>
    <g>
      <polygon points="185.27776 442.5699 194.36401 440.13085 189.2821 403.92273 175.87152 407.52214 185.27776 442.5699" fill="#a0616a"/>
      <path d="M216.35388,434.01035h0c.41075,.40056,.97271,1.8984,1.1214,2.45253h0c.45702,1.70323-.55323,3.45446-2.25645,3.91148l-28.13979,7.55067c-1.16195,.31178-2.35664-.37741-2.66842-1.53936l-.31436-1.17155s-2.33687-3.14757-.63539-8.25657c0,0,4.4739,2.44248,8.36829-4.30831l.80662-3.26456,13.59126,5.26066,6.50559-.91464c1.42327-.2001,2.59225-.72379,3.62124,.27966Z" fill="#2f2e41"/>
    </g>
    <g>
      <polygon points="96.2113 442.361 105.61922 442.36008 110.09461 406.072 96.20939 406.07296 96.2113 442.361" fill="#a0616a"/>
      <path d="M128.44398,442.14758h0c.29291,.49332,.44749,2.08563,.44749,2.65936h0c0,1.76348-1.42958,3.19306-3.19306,3.19306h-29.13521c-1.20305,0-2.17832-.97527-2.17832-2.17832v-1.21299s-1.44131-3.64566,1.52609-8.13914c0,0,3.68805,3.51848,9.19893-1.99239l1.62511-2.94398,11.76356,8.60323,6.52037,.80259c1.4265,.17559,2.69126-.02725,3.42504,1.20859Z" fill="#2f2e41"/>
    </g>
    <path d="M158.82276,226.20501l24.73867,106.63221,11.94281,86.15882-18.76727,2.55917-52.03652-146.72592-11.94281,146.72592-21.32644,1.70612s-17.06115-174.02376-9.38363-195.3502l76.77519-1.70612Z" fill="#2f2e41"/>
    <g>
      <polygon points="188.26927 100.11464 196.80486 91.19571 206.607 44.52897 195.75069 43.19573 180.37664 82.6504 172.64656 96.44127 188.26927 100.11464" fill="#a0616a"/>
      <path d="M133.21005,145.50513s7.98834,14.72948,22.81524,6.02164c14.8269-8.70785,30.50798-42.99178,30.50798-42.99178,0,0,3.13116-8.71523,6.40656-10.44384,1.72629-.91106,6.16822-1.89357,3.8378-4.63646-2.33042-2.74289-19.0897-8.73935-19.0897-8.73935,0,0-6.54685-1.16359-4.72473,2.28898,1.82212,3.45257-4.16226,1.31382-3.55812,4.96777,.60414,3.65395-4.86201,4.91316-4.86201,4.91316l-31.33303,48.61987Z" fill="#20c997"/>
      <ellipse cx="203.08656" cy="35.81018" rx="12.15477" ry="7.21689" transform="translate(109.01967 219.32569) rotate(-72.86125)" fill="#a0616a"/>
    </g>
    <path d="M134.2706,94.47349h-23.35635l-.94516,7.36409s-29.45637,8.1005-28.71996,12.51896,5.15486,78.05938,5.15486,78.05938l-3.68205,36.82046s66.27683,27.98355,76.58656-5.15486l-5.15486-38.29328s12.51896-65.54042,9.57332-68.48606c-2.94564-2.94564-27.24714-14.72818-27.24714-14.72818l-2.20923-8.1005Z" fill="#20c997"/>
    <circle cx="120.70371" cy="73.60124" r="20.964" fill="#a0616a"/>
    <path d="M136.22941,64.9778c2.6786-.22647,5.35708-.45294,8.03555-.67929-.92068-.42235-1.87955-.87429-2.49305-1.68044-.61337-.80602-.74023-2.07965,.00075-2.77026,.86596-.80701,2.30003-.37944,3.24646,.33144-.52109-2.72088-2.14507-5.21393-4.42346-6.79002-2.78307-1.92531-9.6681,.37044-13.02326-.07156-3.87127-.51003-4.35444-3.81054-8.22571-4.32056-1.45906-.19215-3.1012-.33716-4.2486,.58465-1.27264,1.02229-1.41541,2.95519-2.53819,4.14003-1.60308,1.69175-4.3507,1.19267-6.63208,1.66862-3.23128,.67431-5.66712,3.50763-6.79214,6.61094s-1.16643,6.47861-1.19516,9.77954c-.03209,3.69927-.04373,7.98181,2.63188,10.53679,1.62994,1.55657,6.07015,6.89712,6.55008,9.0994,.34089,1.56403,14.23372,3.46895,17.24487,3.38226l10.26295-3.38226c1.00861-4.44137-.65987-13.22738-3.0579-17.0994,.78973,1.04306,4.44172,4.18322,5,3s.30504-4.89165,1-6c.87728-1.39887-2.98823-6.20083-1.34299-6.33987Z" fill="#2f2e41"/>
  </g>
</svg>