<svg xmlns="http://www.w3.org/2000/svg" version="1.1" xmlns:xlink="http://www.w3.org/1999/xlink" xmlns:svgjs="http://svgjs.com/svgjs" width="1440" height="950" preserveAspectRatio="none" viewBox="0 0 1440 950"><g mask="url(&quot;#SvgjsMask1027&quot;)" fill="none"><rect width="1440" height="950" x="0" y="0" fill="rgba(10, 149, 108, 1)"></rect><path d="M 0,66 C 48,114 144,275.8 240,306 C 336,336.2 384,216.6 480,217 C 576,217.4 624,338.2 720,308 C 816,277.8 864,45 960,66 C 1056,87 1104,416.8 1200,413 C 1296,409.2 1392,120.2 1440,47L1440 950L0 950z" fill="rgba(32, 201, 151, 1)"></path><path d="M 0,826 C 96,786.2 288,646 480,627 C 672,608 768,729.6 960,731 C 1152,732.4 1344,653.4 1440,634L1440 950L0 950z" fill="rgba(81, 225, 183, 1)"></path></g><defs><mask id="SvgjsMask1027"><rect width="1440" height="950" fill="#ffffff"></rect></mask></defs></svg>