<?xml version="1.0" encoding="utf-8"?>
<svg viewBox="526.867 418.303 226.881 227.05" xmlns="http://www.w3.org/2000/svg">
  <g transform="matrix(1, 0, 0, 1, 439.467102, 27.477863)">
    <path d="M 314.28 504.266 C 314.28 591.592 219.747 646.171 144.12 602.508 C 68.493 558.845 68.493 449.687 144.12 406.024 C 161.365 396.068 180.927 390.826 200.84 390.826 C 263.607 390.547 314.559 441.5 314.28 504.266 Z" fill="#f2f2f2"/>
    <path d="M 247.235 477.123 L 246.673 478.135 C 251.669 465.823 247.126 450.65 238.214 441.366 C 229.302 432.082 216.912 427.838 204.712 426.154 C 195.655 424.904 186.255 424.94 177.643 428.257 C 165.172 433.061 155.645 444.182 147.69 455.751 C 144.051 461.043 140.474 467.075 140.836 473.689 C 141.173 479.826 144.816 485.035 147.799 490.242 C 150.783 495.449 153.275 501.91 151.133 507.593 C 149.857 510.98 147.16 513.419 144.972 516.19 C 142.784 518.96 140.984 522.705 142.041 526.181 C 142.996 528.887 145.302 530.891 148.114 531.459 C 150.759 532.076 153.504 531.673 156.183 531.268 L 225.722 520.762 C 246.134 517.677 257.219 495.192 247.235 477.123 Z" fill="#2f2e41"/>
    <circle cx="320.565" cy="700.596" r="33.999" transform="matrix(0.160182, -0.987087, 0.987087, 0.160182, -547.388723, 690.479895)" fill="#ffb9b9"/>
    <path d="M 286.02 579.166 C 245.129 625.695 174.467 630.801 127.31 590.636 L 137.04 563.486 C 141.521 553.66 151.06 547.109 161.84 546.456 L 168.03 546.076 L 182.79 533.346 C 182.79 533.346 222.56 531.926 221.97 531.246 L 246.06 545.736 L 246.04 545.636 L 255.51 546.216 C 266.291 546.866 275.832 553.418 280.31 563.246 L 286.02 579.166 Z" fill="#20c997"/>
    <path d="M 227.759 454.722 C 226.881 450.079 222.146 447.956 218.089 446.927 C 206.32 443.924 194.079 443.252 182.052 444.948 C 173.286 446.198 164.311 448.955 157.949 455.798 C 152.82 461.56 149.914 468.962 149.753 476.675 C 149.493 481.286 150.524 485.879 152.728 489.938 C 155.018 493.812 158.919 496.623 162.947 496.524 L 163.355 497.943 C 180.425 495.564 196.281 484.943 206.268 469.199 C 204.394 475.891 200.664 481.917 195.509 486.579 C 207.034 481.968 217.052 474.247 224.446 464.277 C 226.466 461.597 228.426 458.255 227.759 454.722 Z" fill="#2f2e41"/>
  </g>
</svg>