<?xml version="1.0" encoding="utf-8"?>
<svg viewBox="155.522 381.23 226.88 227.882" xmlns="http://www.w3.org/2000/svg">
  <g transform="matrix(1, 0, 0, 1, -113.667732, 120.698746)">
    <circle cx="382.63" cy="373.971" r="113.44" fill="#f2f2f2"/>
    <circle cx="351.479" cy="315.388" r="16.016" fill="#2f2e41"/>
    <circle cx="377.104" cy="351.691" r="40.573" fill="#2f2e41"/>
    <circle cx="380.462" cy="359.284" r="32.97" fill="#9e616a"/>
    <path d="M 402.852 325.675 C 378.028 310.542 346.131 327.956 345.437 357.02 C 345.424 357.558 345.423 358.097 345.433 358.635 C 362.233 362.853 379.883 366.081 397.799 359.644 L 402.03 349.289 L 404.525 359.652 C 409.981 361.882 415.451 363.769 420.921 359.63 C 421.376 345.901 414.493 332.967 402.852 325.675 Z" fill="#2f2e41"/>
    <path d="M 336.567 271.912 C 325.492 266.834 311.596 269.216 302.375 277.179 C 293.153 285.141 288.769 298.101 290.55 310.153 C 292.366 322.449 299.841 333.037 306.731 343.382 C 313.621 353.726 320.353 365.061 320.345 377.49 C 320.333 396.129 305.24 411.243 286.601 411.28 C 297.107 415.804 308.074 420.415 319.5 419.879 C 330.926 419.343 342.903 411.997 344.767 400.711 C 346.11 392.579 342.12 384.65 338.793 377.109 C 333.373 364.822 329.455 351.925 327.125 338.7 C 326.013 332.387 325.29 325.751 327.348 319.681 C 330.712 310.446 339.719 304.497 349.533 305.026 L 353.309 301.629 C 354.988 289.562 347.642 276.989 336.567 271.912 Z" fill="#2f2e41"/>
    <path d="M 467.985 449.871 C 427.093 496.399 356.432 501.506 309.275 461.341 L 319.005 434.191 C 323.486 424.364 333.025 417.814 343.805 417.161 L 349.995 416.781 L 364.755 404.051 C 364.755 404.051 404.525 402.631 403.935 401.951 L 428.025 416.441 L 428.005 416.341 L 437.475 416.921 C 448.256 417.571 457.797 424.122 462.275 433.951 L 467.985 449.871 Z" fill="#20c997"/>
  </g>
</svg>