<?xml version="1.0" encoding="utf-8"?>
<svg viewBox="1029.395 104.305 226.879 226.879" xmlns="http://www.w3.org/2000/svg">
  <g transform="matrix(0.426883, 0, 0, 0.426883, 1022.320801, 64.943535)" style="">
    <circle cx="282.31" cy="357.946" r="265.739" fill="#f2f2f2" style=""/>
    <g transform="matrix(1, 0, 0, 1, 16.477514, 88.798569)">
      <g>
        <circle cx="270.759" cy="260.92941" r="86.34897" fill="#a0616a"/>
        <polygon points="199.2879 366.61365 217.2879 320.61365 310.2879 306.61365 320.28003 408.44043 226.28003 410.44043 199.2879 366.61365" fill="#a0616a"/>
      </g>
      <path d="M357.94449,276.8613c-1.12067,4.48965-3.38602,15.17972-6.9238,15.23233-2.89023,.04208-5.65668-46.33466-2.76953-54.00568,3.31638-8.81271-5.39886-19.96062-11.96411-25.6832-11.80423-10.2894-38.00696,11.80466-64.65118,1.79587-.70633-.26482-.56558-.23502-8.97934-3.59174-25.88966-10.32974-27.2506-10.62788-28.73386-10.77521-12.55046-1.24167-27.86705,9.02844-34.12146,21.55038-6.50168,13.01653-1.06937,24.18106-7.18346,55.67184-.71246,3.67065-1.83138,8.90216-3.59174,8.97934-3.21819,.14029-6.3605-17.04846-7.18346-21.55038-3.44792-18.86186-6.7722-37.04675,0-57.46771,.73878-2.22729,5.29158-10.49458,14.36693-26.93799,13.0744-23.68825,19.65018-35.57709,21.55038-37.7132,13.62859-15.32624,38.43575-29.30734,59.26357-23.34626,10.52704,3.01299,8.63953,7.85691,21.55038,12.57105,23.00821,8.40057,43.00476-1.87303,46.69254,5.3876,1.9537,3.84602-3.51236,7.01686-3.59174,14.36693-.13593,12.6114,15.81424,16.25575,25.14212,28.73386,5.01447,6.70819,13.59753,6.78012-8.87228,96.78212l.00003,.00003Z" fill="#2f2e41"/>
    </g>
    <path d="M 481.398 531.409 C 477.917 535.319 474.308 539.149 470.568 542.889 C 420.328 593.129 353.528 620.799 282.478 620.799 C 221.068 620.799 162.838 600.129 115.728 562.079 C 115.697 562.059 115.677 562.039 115.648 562.009 C 109.398 556.969 103.348 551.609 97.508 545.949 C 97.617 545.069 97.738 544.199 97.867 543.339 C 98.687 537.539 99.598 532.009 100.617 526.919 C 108.968 485.199 218.838 441.399 221.697 440.259 C 221.738 440.249 221.758 440.239 221.758 440.239 C 221.758 440.239 235.898 492.359 296.488 491.689 C 337.758 491.239 329.758 440.239 329.758 440.239 C 329.758 440.239 330.258 440.339 331.197 440.539 C 343.117 443.069 425.878 461.249 458.528 486.059 C 468.478 493.619 475.617 509.719 480.748 528.919 C 480.968 529.739 481.177 530.579 481.398 531.409 L 481.398 531.409 Z" fill="#20c997"/>
  </g>
</svg>