<?xml version="1.0" encoding="utf-8"?>
<svg viewBox="1060.412 80.786 226.88 226.881" xmlns="http://www.w3.org/2000/svg">
  <g transform="matrix(1, 0, 0, 1, 784.261902, -456.385437)">
    <circle cx="389.59" cy="650.611" r="113.44" fill="#f2f2f2"/>
    <circle id="bf829f4c-57e2-46a5-971d-584c2690be65" data-name="ab6171fa-7d69-4734-b81c-8dff60f9761b" cx="387.093" cy="627.963" r="34.415" fill="#9e616a"/>
    <path d="M 473.235 725.51 C 432.343 772.038 361.682 777.145 314.525 736.98 L 324.255 709.83 C 328.736 700.003 338.275 693.453 349.055 692.8 L 355.245 692.42 L 370.005 679.69 C 370.005 679.69 409.775 678.27 409.185 677.59 L 433.275 692.08 L 433.255 691.98 L 442.725 692.56 C 453.506 693.21 463.046 699.762 467.525 709.59 L 473.235 725.51 Z" fill="#20c997"/>
    <path d="M 355.823 643.873 C 355.755 643.685 355.694 643.495 355.627 643.306 C 355.494 643.423 355.367 643.543 355.224 643.652 L 355.823 643.873 Z" fill="#2f2e41"/>
    <path d="M 428.318 615.719 C 427.961 608.656 424.598 602.083 419.079 597.66 C 417.073 596.074 414.753 594.735 413.425 592.55 C 412.668 591.003 412.026 589.402 411.505 587.76 C 408.863 581.472 401.334 578.13 394.58 579.082 C 387.826 580.034 381.981 584.577 378.044 590.147 C 370.23 586.403 361.294 592.521 361.958 601.16 C 362.011 601.847 362.127 602.527 362.304 603.193 C 358.806 600.375 353.149 602.629 350.966 606.554 C 348.782 610.479 349.129 615.282 349.778 619.726 C 350.954 627.758 352.913 635.655 355.627 643.306 C 359.032 640.307 358.823 634.846 358.407 630.229 C 357.974 625.433 358.233 619.577 362.427 617.21 C 366.479 614.924 371.398 617.434 375.865 618.733 C 383.014 620.757 390.691 619.55 396.874 615.428 C 399.201 613.853 401.273 611.881 403.782 610.615 C 406.291 609.35 409.483 608.91 411.819 610.472 C 413.952 611.899 414.82 614.56 415.546 617.021 C 417.266 622.855 418.986 628.688 420.706 634.522 C 425.814 629.63 428.585 622.787 428.318 615.719 Z" fill="#2f2e41"/>
  </g>
</svg>